/* XPM */
static char *_3e7a2565d4e4e5a982fcc868c919076rW1cFKmUaXW5YFVP[] = {
/* columns rows colors chars-per-pixel */
"64 64 245 2 ",
"   c None",
".  c #12121C",
"X  c #14181E",
"o  c #0F101A",
"O  c #141523",
"+  c #131925",
"@  c #151C2C",
"#  c #191D2C",
"$  c #171A26",
"%  c #1B1F31",
"&  c #171F31",
"*  c #0F1825",
"=  c #15212E",
"-  c #1A232D",
";  c #152333",
":  c #1C2334",
">  c #1C253B",
",  c #1C2B3C",
"<  c #162938",
"1  c #1C323E",
"2  c #17323A",
"3  c #0D2A37",
"4  c #222939",
"5  c #25333C",
"6  c #1D2D42",
"7  c #1A2E46",
"8  c #093845",
"9  c #153243",
"0  c #1D3245",
"q  c #1E344B",
"w  c #143C4B",
"e  c #1B3A4D",
"r  c #163648",
"t  c #0C3D53",
"y  c #153C53",
"u  c #1C3B53",
"i  c #1D3D5A",
"p  c #173B56",
"a  c #212D43",
"s  c #222A45",
"d  c #213143",
"f  c #22324C",
"g  c #283B4C",
"h  c #233A55",
"j  c #233C59",
"k  c #233853",
"l  c #363E44",
"z  c #223F61",
"x  c #1A3C63",
"c  c #0B444E",
"v  c #0A4358",
"b  c #13445D",
"n  c #1A415C",
"m  c #174759",
"M  c #1F555F",
"N  c #2A454D",
"B  c #254657",
"V  c #344A56",
"C  c #37545B",
"Z  c #0C4B64",
"A  c #1B4463",
"S  c #144B6B",
"D  c #164A65",
"F  c #065668",
"G  c #15546A",
"H  c #164C72",
"J  c #0A5473",
"K  c #0C5C7B",
"L  c #0A5779",
"P  c #165775",
"I  c #0D4F78",
"U  c #244B6C",
"Y  c #294664",
"T  c #285967",
"R  c #375A67",
"E  c #254C73",
"W  c #255678",
"Q  c #395875",
"!  c #08657B",
"~  c #196679",
"^  c #38636E",
"/  c #2B6475",
"(  c #2D646E",
")  c #42525B",
"_  c #4D4C5B",
"`  c #465D6F",
"'  c #46646B",
"]  c #4A6976",
"[  c #566670",
"{  c #64727B",
"}  c #7D827F",
"|  c #938679",
" . c #065A85",
".. c #1A5D88",
"X. c #235B84",
"o. c #225E8A",
"O. c #056386",
"+. c #0B6182",
"@. c #09678A",
"#. c #166688",
"$. c #066A95",
"%. c #196697",
"&. c #087499",
"*. c #1A7395",
"=. c #147789",
"-. c #266187",
";. c #346587",
":. c #2C7387",
">. c #35778D",
",. c #226492",
"<. c #2A6A96",
"1. c #297998",
"2. c #397D98",
"3. c #0879A5",
"4. c #1977A8",
"5. c #1072A9",
"6. c #2675A9",
"7. c #3177A9",
"8. c #587885",
"9. c #497591",
"0. c #6B7B87",
"q. c #4C7BA1",
"w. c #987E84",
"e. c #378697",
"r. c #1686B3",
"t. c #0F86AF",
"y. c #2987B7",
"u. c #3686B5",
"i. c #2792BE",
"p. c #2F8EB3",
"a. c #13819F",
"s. c #518698",
"d. c #688A97",
"f. c #7A959E",
"g. c #64828A",
"h. c #568AA8",
"j. c #5992A5",
"k. c #4589BD",
"l. c #5192B5",
"z. c #6798A7",
"x. c #7999A9",
"c. c #6999AE",
"v. c #7BA6B6",
"b. c #1A92C4",
"n. c #188DC4",
"m. c #2394C3",
"M. c #2B93C4",
"N. c #3B9AC5",
"B. c #3BA6D5",
"V. c #499AC6",
"C. c #5899C8",
"Z. c #46A5CA",
"A. c #59A4CD",
"S. c #47AAD5",
"D. c #59B2DA",
"F. c #56ACD7",
"G. c #73B3D5",
"H. c #6EB0CE",
"J. c #72BFE3",
"K. c #7FC1DF",
"L. c #77C2E4",
"P. c #8B9290",
"I. c #859AA7",
"U. c #87AAB7",
"Y. c #97ABB7",
"T. c #98B2BB",
"R. c #8DA6AD",
"E. c #A5B6BA",
"W. c #B1AFAF",
"Q. c #A19F96",
"!. c #C9B9B5",
"~. c #C6C0BE",
"^. c #8BB7CC",
"/. c #98B7C4",
"(. c #87BCD9",
"). c #91BFD6",
"_. c #A7BDC8",
"`. c #A9ACC3",
"'. c #96C2DA",
"]. c #ACC3CA",
"[. c #A9CAD9",
"{. c #B7CBD3",
"}. c #BCD1DB",
"|. c #AAD1DC",
" X c #89CCE7",
".X c #8CD1EC",
"XX c #9AD5ED",
"oX c #95D4EE",
"OX c #9AD6F1",
"+X c #9ED8F1",
"@X c #97D6F0",
"#X c #93CEE9",
"$X c #A2D3EB",
"%X c #AAD5ED",
"&X c #ABDAEE",
"*X c #A3DAEE",
"=X c #B4DBEE",
"-X c #B9D5E8",
";X c #A4DAF2",
":X c #ABDCF2",
">X c #A8D5F1",
",X c #B3DCF2",
"<X c #BBDDF2",
"1X c #BCCBE0",
"2X c #BEE4F4",
"3X c #B7E1F5",
"4X c #CEC8CB",
"5X c #D5C6C4",
"6X c #CBD7DE",
"7X c #D9D2D9",
"8X c #E8D8D1",
"9X c #F6DCD8",
"0X c #E8CDCC",
"qX c #F7E4DA",
"wX c #C4DBEB",
"eX c #C8D9E7",
"rX c #C4DEF3",
"tX c #D2DFF0",
"yX c #F2DCE4",
"uX c #CAE3ED",
"iX c #D8E7EE",
"pX c #C4E4F5",
"aX c #CAE4F4",
"sX c #CCE9F5",
"dX c #CAE6F8",
"fX c #C8E9F8",
"gX c #D4E5F4",
"hX c #DBE6F4",
"jX c #D4E9F5",
"kX c #DBEAF5",
"lX c #D4EBF9",
"zX c #DAECF9",
"xX c #DEF1FA",
"cX c #E9EAEA",
"vX c #F6EBE8",
"bX c #E3ECF6",
"nX c #EAECF6",
"mX c #E4EDF8",
"MX c #E4E9F4",
"NX c #F2ECF4",
"BX c #ECF1F6",
"VX c #E5F2FB",
"CX c #EDF3F9",
"ZX c #E1F0F7",
"AX c #F8F8F9",
/* pixels */
"                                                                                                                                ",
"                                                                                                                                ",
"                                                    M.i.m.m.m.m.m.i.t.t.                                                        ",
"                                            A.Z.N.i.V.A.Z.m.S.D. XN.t.&.p.p.&.@.@.                                              ",
"                                      G.A.A.'.'.V.p.c.].c.y.G.v.Y.s.J S s.x.H A ;.2.K                                           ",
"                                  q.q.9.Q Y V g , : - - = 3 1 2 $ X . o . . . . O O O @ @ & r :.>.                              ",
"                        > q Q T q 0 5 , : - - = < , 9 2 2 5 0 1 5 2 2 < < : = @ $ O O O . O $ < ; $ O O @ >                     ",
"              k 6 @ O O + # > a 5 6 d , 4 , , , 1 d 0 1 , 1 1 0 5 , , : 4 : : : % : : % % % : < 9 9 r 9 9 3 ; ; r #.            ",
"        h.Y 6 % 7 u h h g s s a s s s 4 6 , 0 0 0 9 9 , < 2 R R m w r c 0 0 5 : @ @ : : % % % : : : , 0 n m D D b b a.Z.        ",
"    C.C.-.E W E z h f s 4 4 s f f f s 4 > > 0 < 9 G m m T ( s.] T T ^ M c D B ; O $ + : > > > 7 6 > 9 6 0 0 y S O.@.$.t.r.      ",
"  V.7.7.<.,.X.E j f f f f 4 g g h x f s u 6 : > 9 h./ u N N V ] ] { 8.T c w 6 # # > @ O > p p 7 < w t b y D  .! @.O.@.&.a.t.    ",
"V.7.6.6.,.%.,.X.9.z j Y j h f f z q.z s a q > 9 F j.f.T N d N V N V N - * + @ & : # > & O & 7 7 Z t c b 3 Y 1.! @.&.a.3.a.a.r.  ",
"7.7.6.6.7.6...o.9.k ; j f j Y z i Q z s 7 7 ; > A R Q k 1 r N e < = = = = & % > : # $ $ # % i P 7 & t 8 c L +.O.O.3.3.a.&.=.=.  ",
"<.o.5.6.6.<.o.%.....A Y k : s z h f f f j j q f h e e e w M / T m e q e u u u q 7 6 , > % 6 7 ; 8 3 b  .K J $.L v ! &.&.! @.    ",
"  ,.X.6.4.P i H ..A W ;.u 7 k f h x H S x j j i u u m m m ( g.{ T w c y e u u f a 0 6 0 7 q p D Z b J #.K L v v F $.@.K @.      ",
"    ,.H ,.,.H x A o.o.E ..E E E H I  .I H x A A m m b b ^ I.W.W.g.~ G m m n u a f q f q q i S L $.$.L t K #.Z F O.O.K @.        ",
"        -.-.o.W H ;.Y p X.7.6... . . . . . .I  .S J L :.x.!.9X8X~.x.>.~ M Z u k q u p D b H K $.3.$.v t D G b K !               ",
"              X.U Y B i j 7.k.y.5.$.5.$. .$.$. . .1.j.Y.4X5X0X8X8X4XE.z.s.P D b x p J J K *.r.r.*.Z r m S                       ",
"                    X.U Y -.7.k.V.M.n.5.5.n.S.A.(.H.^./.T.{ P.Q.f.8.g.I.x.g.z.z.2.$.&.3.4.r.r.*.                                ",
"                                V.F.D.S.S.OXrX#XV.*... .P ) | Q.^ m b n m F -.u.L.G.m.b.                                        ",
"                                      .X,XoXB.n.5.$.%...>.w.!.!.P.9.~ ..J G J $.m.L.                                            ",
"                                      +X>XOXB.n.5.y.C.C.`.0X9XqX!.R.2.*.*.4.%.%.p.                                              ",
"                                        ;X;XJ.M.r.V.rXwX7XyXqXqX0X5XI.j.l.6.r.u.                                                ",
"                                               XF.(.tX7X0X0XvXAXvX0X!.H.).G.F.                                                  ",
"                                                +X;X&X1X7X9XAXAXAXqX4X^.G.                                                      ",
"                                                OX:X2XzXBXBXNXAXCXBXuX X                                                        ",
"                                                  *XfXkXcXBXCXCXZXjXuXXX                                                        ",
"                                                  :XfXcXcXNXBXCXcXjXpX&X                                                        ",
"                                                  3XsXcXvXvXAXAXBXiX=X&X                                                        ",
"                                                  ,XuXcXvXnXAXAXBXiX-X&X                                                        ",
"                                          ;X:XOX+X3XuXcXcXNXAXAXBXZXuX3X@X                                                      ",
"                                      +X:X;X;XOX;X3XuXcXcXNXAXCXBXZXiXpXXX                                                      ",
"                                      3X3X@X    ;X&XwXiXhXnXBXBXBXcXZXuXXX                                                      ",
"                                      :X2X+X    +X>XwXgXhXcXBXBXnXkXjXjXXX                                                      ",
"                                        +X+X      >XsXgXgXkXZXBXnX6X6XsX+X                                                      ",
"                                                  &XwXtXaXgXiXZXZX].d.|.*X                                                      ",
"                                                  =X<X<X2XuXsXZXVX-X( v.;X                                                      ",
"                                                  ,XeX7X8X{.uXjXxXlXv.'.;X                                                      ",
"                                                  &XW.Q.E.E.].sXxXxXxXlX:X                                                      ",
"                                                 X[.} P.R.v.E.}.jXjXxXlX2X                                                      ",
"                                                *Xx.C } f.v.T.].uXkXxXxX2X                                                      ",
"                                                *X^ 8 C :.j.U.].{.iXxXxXfX.X                                                    ",
"                                                '.c 8 c ! s.v./.].6XCXVXsX+X                                                    ",
"                                              @Xz.c 8 c F e.v.T.].}.VXxXuX$X                                                    ",
"                                              @Xe.8 8 2 F ! z.T._.{.jXkXsX$X                                                    ",
"                                              *X] o o X c ! e.v.T.}.zXZXzX2X                                                    ",
"                                              :X|.l o X 3 F a.s.^.uXjXxXjXrX                                                    ",
"                                            .X,X2XE.- X X 8 ! ~ v.kXjXxXkXaX                                                    ",
"                                          @X:X2XpXfXf.- . X c P ^.hXhXhXhXtX>X                                                  ",
"                                          :XfXjXsX2XfX{ . o O U 1XlXlXhXhXgX:X                                                  ",
"                                          :XpXVXxX2XaXeX[ 4 _ I.-XwXhXtXtXhX<X                                                  ",
"                                          :XpXxXxXjXfXdXwXwXgX|.q.U.wXhXhXhXrX>X                                                ",
"                                          +XpXdXfXsXaXfXdXsX_.[ [ d.`.tXMXhXrX>X  ;X                                            ",
"                                          ;XpXpX2X2XpXdXfXY.' ) [ 8.x.eXmXMXgX>X  ;X                                            ",
"                                          ,XaXpXpXpXdXaXx.C C C ) 9.^.gXmXMXlX,X                                                ",
"                                      ;X;XrXaXdXpXpXaX<X] N N C Q ^.gXhXmXmXhX<X                                                ",
"                                    XX<X<XtXgXdXgXdXaXgX].) N T U.kXMXMXmXMXhXrX+X                                              ",
"                                    $X:X<XhXMXlXhXhXhXkXBXE.R T.CXnXnXnXnXMXMXrX,X>X                                            ",
"                                      %XrXgXhXhXhXhXbXbXZXZXeXVXVXmXnXCXCXCXnXgXrX<X;X;X                                        ",
"                                            %X      ,X            pXfXgXmXCXhXdXaX<X,X%X;X                                      ",
"                                      XX$X%X=X,X<XsXsXaXaXfXsXfXsXsXgXjXmXzXgXrX<X-X%X                                          ",
"                                            %X&X:XdXdX,X,X=X=X<X2X<X  =XrX<X                                                    ",
"                                                                                                                                ",
"                                                                                                                                "
};
