/* XPM */
static char *_35279ef91c043b4912deef4bc24801ddpodTOglIvrMqywB[] = {
/* columns rows colors chars-per-pixel */
"64 64 232 2 ",
"   c None",
".  c #0A0605",
"X  c #0C0B04",
"o  c #0E0D09",
"O  c #060402",
"+  c #120D09",
"@  c #130F07",
"#  c #0F1006",
"$  c #111206",
"%  c #14140C",
"&  c #17180D",
"*  c #1A1C0E",
"=  c #19130C",
"-  c #1B1C12",
";  c #1E1D1A",
":  c #171712",
">  c #251E15",
",  c #211B0E",
"<  c #1F210E",
"1  c #1F2112",
"2  c #21220F",
"3  c #232414",
"4  c #2A2313",
"5  c #272916",
"6  c #2A2A16",
"7  c #23241B",
"8  c #2B2C1B",
"9  c #29281B",
"0  c #342A18",
"q  c #2F301C",
"w  c #33331D",
"e  c #3B381D",
"r  c #252621",
"t  c #2C2C24",
"y  c #2D2E29",
"u  c #272924",
"i  c #343422",
"p  c #373923",
"a  c #3B3B24",
"s  c #33332C",
"d  c #3D3C2C",
"f  c #39352B",
"g  c #353630",
"h  c #3B3B35",
"j  c #383933",
"k  c #302F23",
"l  c #442D1B",
"z  c #4A361C",
"x  c #523C1F",
"c  c #463A24",
"v  c #553D22",
"b  c #433F34",
"n  c #3F4125",
"m  c #3F403A",
"M  c #3F4032",
"N  c #434124",
"B  c #43432A",
"V  c #4C4B2B",
"C  c #494827",
"Z  c #524E2C",
"A  c #5C4225",
"S  c #57542D",
"D  c #434333",
"F  c #4C4D32",
"G  c #43453C",
"H  c #494538",
"J  c #4C4B3C",
"K  c #4B4533",
"L  c #524A36",
"P  c #545433",
"I  c #5C5B33",
"U  c #5C5C3A",
"Y  c #575638",
"T  c #4E5133",
"R  c #674927",
"E  c #724E26",
"W  c #615E36",
"Q  c #69592C",
"!  c #64633B",
"~  c #6D6A3D",
"^  c #686437",
"/  c #726C3C",
"(  c #75713E",
")  c #79713C",
"_  c #67451D",
"`  c #474840",
"'  c #4B4C44",
"]  c #4F5048",
"[  c #4F5047",
"{  c #525245",
"}  c #53544B",
"|  c #5A594C",
" . c #595749",
".. c #565950",
"X. c #5B5D53",
"o. c #564F41",
"O. c #645E4C",
"+. c #62574C",
"@. c #5F6056",
"#. c #5F6158",
"$. c #636342",
"%. c #6C6B42",
"&. c #676548",
"*. c #716E44",
"=. c #716F4C",
"-. c #737043",
";. c #7A7543",
":. c #7D7A4B",
">. c #78764A",
",. c #636255",
"<. c #63645A",
"1. c #6A6659",
"2. c #67685D",
"3. c #6C6B5C",
"4. c #6C6654",
"5. c #716E5D",
"6. c #797359",
"7. c #6F7149",
"8. c #6B6D61",
"9. c #666960",
"0. c #706F60",
"q. c #6E7166",
"w. c #737364",
"e. c #7C7964",
"r. c #7C7C6B",
"t. c #777668",
"y. c #7B7E70",
"u. c #837D45",
"i. c #827D4A",
"p. c #817D56",
"a. c #817E6C",
"s. c #817C66",
"d. c #837E74",
"f. c #7E8164",
"g. c #8B854D",
"h. c #888449",
"j. c #91894C",
"k. c #848353",
"l. c #8B8B5A",
"z. c #8A8757",
"x. c #948D54",
"c. c #958F56",
"v. c #969253",
"b. c #9B9353",
"n. c #9B965A",
"m. c #99955B",
"M. c #97934F",
"N. c #A39C5C",
"B. c #A29953",
"V. c #AAA35D",
"C. c #B4AC5F",
"Z. c #83816E",
"A. c #8A856D",
"S. c #838264",
"D. c #9A9963",
"F. c #848473",
"G. c #898773",
"H. c #8C8A76",
"J. c #8D8C7A",
"K. c #878879",
"L. c #928C74",
"P. c #918F7A",
"I. c #94927D",
"U. c #9B957B",
"Y. c #979176",
"T. c #938E71",
"R. c #A29A7C",
"E. c #A5A364",
"W. c #ABA563",
"Q. c #AFA967",
"!. c #B3AB62",
"~. c #B1AB69",
"^. c #B9B369",
"/. c #B6B076",
"(. c #9EA068",
"). c #C2BC6E",
"_. c #C2BB72",
"`. c #C9C373",
"'. c #D2C974",
"]. c #D9D37C",
"[. c #C7C16F",
"{. c #959481",
"}. c #999681",
"|. c #9C9A85",
" X c #9B9C89",
".X c #999087",
"XX c #A39D84",
"oX c #A49F88",
"OX c #A5A186",
"+X c #AAA385",
"@X c #A5A38B",
"#X c #AAA58B",
"$X c #ADA98D",
"%X c #B2AB8E",
"&X c #B5A986",
"*X c #ACAA93",
"=X c #A8A396",
"-X c #B3AE93",
";X c #B5AF94",
":X c #B5B194",
">X c #BCB495",
",X c #B6B39A",
"<X c #BAB59A",
"1X c #BEBA9D",
"2X c #BDB48A",
"3X c #BEBCA7",
"4X c #C3BB9C",
"5X c #C5BB9A",
"6X c #C3BB83",
"7X c #C4BEA1",
"8X c #C9C09F",
"9X c #DAD682",
"0X c #E3DB82",
"qX c #E9E589",
"wX c #F6F293",
"eX c #CCC4A4",
"rX c #C8C4A5",
"tX c #D4CCAB",
"yX c #D9CDAB",
"uX c #D2C8A7",
"iX c #DCD1AE",
"pX c #D6D0AF",
"aX c #DDD4B2",
"sX c #E1D5B3",
"dX c #E5DAB6",
"fX c #E9DDBA",
"gX c #E6DBB9",
"hX c #EFE2BE",
"jX c #D9D7D0",
"kX c #F1E8CE",
"lX c #FDFDFD",
"zX c #E0DFC8",
/* pixels */
"a                                                                                                                               ",
"8 8 T                                                                                                                           ",
"  1 2 a ~                                                                                                                       ",
"    3 * 8 P :.                                                    '.B.N.9XqXqX                                                  ",
"    9 * % < w P i.                                          B.~ V.].C./ ^ B.].qX].B.                                            ",
"      8 & # # < e W :.b.                  X.            n.N.B.Q Q C.].'.) -.[.].].C.C.wX                                        ",
"        5 % # # $ 1 a P ;.v.V.          } G ' q.t.2.$.g.x.x.N.x.S ^ V.^.V.^ / u.j.j.h.[.9X                                      ",
"          5 % # # # % 3 p V ! h.g.N.!.  7.d u m 3.&.S / i.g.x.N.j.I Z / C.V.S / ).].).u.!.V.              '.^.b.j./ ~ *.;.      ",
"            8 * # X X # $ < w C I -.g.m.n.) I 3.F.,.C ^ ;.i.x.D.W.n.u.W j.^.h.N n.9X9Xg.v.^.M.k.    C.^.!.v.^ N 8 * * 1 8 e n   ",
"              8 < # # X X X # < w T ! ~ ! I Z 3.w.L S i.x.N.N.V.x.h.) ^ I h.v.n ^ ^.`.v.! V.v.c.S.i.j.:.^ V 5 % % = * & & % 3 w ",
"                8 3 % X X X X X # 1 n U ! S n @.} C *.z.N.N.!.^.C.C.V.M.h.~ ^ Z N ;.m.f.S h.;.;.:.=.W Y c * % &                 ",
"                  q q 1 # X X O X O # w T V n } K B F Y U P T V T I I ;.V.!.M.M.Q ) u.) Q ) h.b.^.'.[.N.I q                     ",
"                      8 5 1 & # X X O X w n w G B p p d a i 8 5 5 5 6 0 q N ( ~.h.h.[.].!.j.`.9X`.].].].'.^.                    ",
"                        G n i 1 & % * 5 8 6 3 t p 8 8 q 8 6 5 q n N C Z C e 6 C ( I b.^.~.( v.^.h.~ ^ S S P P                   ",
"                  P. .; 1 J @.J 8 1 1 q 8 5 1 5 i 5 1 < * 2 5 p w 3 $ * 0 J B 3 w n I f.-.S ! P e 9 i i * 3                     ",
"                  ,.3.` y h <.T.A.,.y - * * - 8 a p 8 3 2 3 s <.N $ O o z =XF.u $ < n U n 5 5 * . + L P.u                       ",
"                  8.,.,.,.' j ,.XX5XXXO.9 = - 7 p n B a 5 1 w { K e 0 e 1.=X.Xd = > a i.S ; i 4 , 0 O.s.                        ",
"                  #.<.,...,.,. .4.Y.&XR.+.r - * 7 B U W V 6 < 5 q e e e D c w 6 6 W i.Q.W.Z 8 0 e p d z                         ",
"                y t u [ 5.w.5.0.a.U.XXd.G t ; & & 1 p Y ~ W n 5 < < 2 2 2 4 5 6 5 a W n.~.i.3 2 5 5 6 W                         ",
"                r ; > ,.A.U.R.Y.s.G.U.L.} t r ; : % - 3 w P ! P n e q q w e n Y V p 3 8 p P w w w e P /                         ",
"                ; : g <.s.Y.$X5X5XXXR.U.L.s. .j r : % & & 1 p B B M n 8 1 q T ^ :.>.;.;.i.i.a 8 n C P                           ",
"                r r ' X.1.a.XX5X5XyXyXiXeX5X5XA.o.y : + % % * - 1 8 1 & & 8 N U -.i.m.g.g.i.N 7 8                               ",
"                  j ] } X.1.d.+X7XyXiXiXsXyXuXuX>XL.O.i : o o # o : & % & - 7 8 w N V N N L                                     ",
"                  b ' ] } ..8.H.5X7XyXsXdXfXdXiXyXyXeX>XU.e.{ d y 1 : # % - - 1 3 8 8 q p  .                                    ",
"                    G ' ] ....9.d.>X7XiXpXsXgXgXfXgXfXsXaXaXtXeX1X:X&XD X % & 1 9 u 8 y ' T.                                    ",
"                    G m ` } } ..3.d.#X5XrXtXaXaXgXfXfXfXgXgXgXfXhXkXkX>Xw 8 9 8 9 1 1 g  .#X>X                                  ",
"                    ` m h ` ] } ..9.d.|.,X3X3XrXtXaXsXsXaXpXaXaXiXaXgXdXW.V.W.V.g.! T J e.2XeXuX                                ",
"                  } ] ' ` G ` [ } X.2.q.f.J..X=X=X-X;X,X3X,X,X,X>X1XrXeXl.k.l.m.n.E.~.!./.8XuXiX                                ",
"                  } } { ' ` b G ] ..X.<.9.q.y.y.{.K.{.{..X X*X*X,X,X7X7Xk.f.h.l.l.D.l.f.W./.9XiXaX                              ",
"                  } } } [ ` G G b ' ..X.9.9.q.q.y.y.{.{. X X=X=X,X,X3X-X&.&.7.>.>.=.$.7.l.l.D.6XuX                              ",
"                  } } } ' ' ' ` ` ` ` ] ..#.#.9.<.9.q.t.f.y.K.K.{. X*XJ.s n p k q a a n ! z.D./.6X                              ",
"                  } } } ' ' [ ] } ] ' ' ` ' ] } ..X.9.9.q.q.y.y.f.J. Xt.w 1 % % 7 ! ! 8 n l.D.D.D.                              ",
"                  } } ..} } } ..#...] ] ' ` ] G h m ` } X.#.9.q.f.y.K.6.U w % < F ^.[.Y a >.l.f.7.                              ",
"                ' } ........X.X.#.X.....] ` ] ` j g g g g j G } #.9.q.$.! n % # Y n.E.Y 5 m J T 4.                              ",
"                ' } X.X.,.X...@.#.#.......` ` ' m g j j y u 1 y g G ..7.-.B # : >.E.E.%.7 r 7 G                                 ",
"                ' } X.X.#...} @.<.9.X.....] ` ' G j h h g u u y ; u M ! -.V % 8 k.D.E.z.y r y }                                 ",
"                ` } @.<.,.X.} @.9.9...X...] ` ` ` h h m g y y 1 t > c K U d - 8 F $.-.$.f j '                                   ",
"                ` | @.<.<...} X.9.9.X.X.#.} G ` ` m h G h s y u u r ,. .7 ; ; , k f D H '                                       ",
"                ` } @.<.<.X.} X.9.9.X.X.....` ` ] G m ` m g g y y t ` u O + 7 - y '                                             ",
"                G } <.<.<.X.} ..9.8.<.X.....] ` ] ` m ` G j j g h g = o . o > ; 0 c                                             ",
"                  } <.<.#...} ..<.8.9.<.2.#.} ' { ' m G G m h j b g + . . X > > > l                                             ",
"                  } #.<.@.X.} ..8.d.{.XXoXoXI.e.0.X.J @.' m M h h j = . . . r u > l v                                           ",
"                  ] X.<.@.X...3.d.XXoX;X<X4X4X#X1X:XT.%Xr.m J | ` h ; . . . y  .e 0 c                                           ",
"                  [ X.<.X.X.X.3.a.}. X=X<X4X5X;X8XeX2X8X>Xe.J.+X<.b r . . . t a.+.> x x                                         ",
"                  } X.<.X.X.X.1.r.{.{.oX<X7X7X4XeXtX>X8XtX:X+X>XXXG. .= o . > s.6.> v x                                         ",
"                  ' X.<.@.,.@.1.r.P.}.XX,X7X7X7X8XtX1X8XtX2X+X4X>X%XY.7 + . + ,.A.0 z v                                         ",
"                  | <.<.<.,.,.1.d.P.{.XX;X7X7XyXtXuX>X8XuX>XOX1X5X:X%Xb . + . L Y.v l v                                         ",
"                  X.8.w.8.1.,.w.G.}..XXX;X7XuXyXaXuX>X8XuX1X/.4X5X5X5Xo.+ + + s Y.4.c A                                         ",
"                  1.w.t.w.0.1.r.P.|.}.}.;X7XtXtXpXrX<X7XpX2XOX8X7X5X7XO.+ + o > A.a.c R R                                       ",
"                X.8.r.r.t.0.5.G.P.XXP.|.-X7XtXpXtX7X;XeXaX%X$XrXiX5X>X,.+ + o : s.Y.K R E                                       ",
"                ,.w.a.r.t.3.t.H.}. XI.U.*X7XtXpXtX>X-XeXpX%X,XpXfX>X&XO.+ o . + 5.R.+.x E                                       ",
"                ,.w.r.t.5.1.a.P.}. XP.|.;X7XtXuXeX-X:X4X:X-X4XdXaX&XoX .. + o + 4.Y.e.c R _                                     ",
"                ,.0.w.5.1.0.d.P. X|.P.|.:X3XtXeX:X@X:X,X$X$X7XpXuX%X|.J + + . o 4.U.L.o.v E                                     ",
"                X.9.1.X.,.0.r.P. X XP.XX-XrXtX1XOXOX,X:XOX$X7XtXrXOXR.H + + + + 6.Y.U. Xc E                                     ",
"                X.<.| | X.9.e.P.}.{.J. X-XrXrX=XU.@X:XOXU.$X1XrX1X|.XXH + + o : e.L.}.jXX.R                                     ",
"                } X.] ] | 1.r.J.{.J.H. X*X3X,X}.I.@X*XI.P.|.-X,X#XP.XXJ + + . > A.Z.=XlX=Xv E                                   ",
"                } ..' ` | 1.t.H.J.K.F.{.=X:X XK.H.XX XH.H.P. X@XU.G.I.H % + . j A.e.3XlXjXL E                                   ",
"                } ..` ` } X.q.F.F.f.r.J. X X{.f.K.I.J.F.G.H.I.}.H.r.G.b = % + 4.Z.e./.zXlX8.R                                   ",
"                  ' ` ' } | <.w.q.0.0.r.F.f.f.t.f.F.f.y.f.f.G.G.r.r.Z.F 8 q i 5.&.:.M.U.jXs.l                                   ",
"                        h { l.{ G J ' | :.4.] ] {  . .` G m M M a d M p i 8 t B V ~ h.=.Y.6.l                                   ",
"                        %.k.N.%.1 - p %.x.p.w - q Y $.Y t 1 7 7 7 8 8 t 8 7 H 6.6.Y ! Y s.O.l                                   ",
"                        %.:.&.%.a 9 U k.:.:.%.8 p U >.T.=.                                  l                                   ",
"                      Y $.&X6.U F 9 Y $.6.&Xp.Y q K 4.R.p.                                  l                                   ",
"                                    T K O.2XT.                                                                                  "
};
