/* XPM */
static char *f4f1d2fd5c834475dac7a5719adf7b96LzmvNDx2VP0cuk3J[] = {
/* columns rows colors chars-per-pixel */
"64 64 202 2 ",
"   c None",
".  c #090808",
"X  c #1B1916",
"o  c #3A130E",
"O  c #3A2A1A",
"+  c #2F2F30",
"@  c #323232",
"#  c #3C3C3B",
"$  c #3C3835",
"%  c #39332E",
"&  c #4F140E",
"*  c #5A150F",
"=  c #5B1B14",
"-  c #591710",
";  c #441C14",
":  c #641B12",
">  c #6B1C13",
",  c #711C13",
"<  c #432118",
"1  c #6D2219",
"2  c #413D3B",
"3  c #433A35",
"4  c #593832",
"5  c #753728",
"6  c #43403D",
"7  c #4B433D",
"8  c #58493A",
"9  c #7A4433",
"0  c #454444",
"q  c #4B4B4B",
"w  c #4B4845",
"e  c #544C45",
"r  c #594C43",
"t  c #514E4B",
"y  c #53514F",
"u  c #5A5045",
"i  c #535353",
"p  c #595654",
"a  c #5A5957",
"s  c #5B5B5A",
"d  c #66574A",
"f  c #665E57",
"g  c #785C40",
"h  c #7A604D",
"j  c #69615C",
"k  c #7A6758",
"l  c #666462",
"z  c #6C6967",
"x  c #6F6B69",
"c  c #6B6662",
"v  c #726D68",
"b  c #75716C",
"n  c #78736E",
"m  c #7A7775",
"M  c #8A2217",
"N  c #8A261A",
"B  c #8B2B1E",
"V  c #862317",
"C  c #922618",
"Z  c #9D2A1B",
"A  c #962718",
"S  c #A32C1B",
"D  c #AA2F1C",
"F  c #A5311E",
"G  c #AF301D",
"H  c #B4321D",
"J  c #BC351E",
"K  c #8B2E20",
"L  c #873725",
"P  c #943828",
"I  c #893A31",
"U  c #A63624",
"Y  c #B93D25",
"T  c #C2371F",
"R  c #C4381F",
"E  c #C23A21",
"W  c #80402E",
"Q  c #9E412D",
"!  c #8B4437",
"~  c #94503A",
"^  c #BC4229",
"/  c #B54029",
"(  c #A44132",
")  c #A75031",
"_  c #C2482D",
"`  c #8E5A4A",
"'  c #AB5A4D",
"]  c #88684A",
"[  c #9B734B",
"{  c #84695A",
"}  c #8B715D",
"|  c #9C755A",
" . c #947356",
".. c #956F47",
"X. c #A46348",
"o. c #B76E4D",
"O. c #B5794C",
"+. c #AF6253",
"@. c #B2665A",
"#. c #A77556",
"$. c #BA7257",
"%. c #877260",
"&. c #887C78",
"*. c #90706C",
"=. c #A17B61",
"-. c #B17D60",
";. c #C76444",
":. c #C06B5E",
">. c #C97554",
",. c #B9814E",
"<. c #B88456",
"1. c #BE8E5C",
"2. c #B98556",
"3. c #86827E",
"4. c #8A837D",
"5. c #A5866C",
"6. c #BB8662",
"7. c #B58C62",
"8. c #BF976E",
"9. c #B99067",
"0. c #B49170",
"q. c #BC9675",
"w. c #C7845D",
"e. c #C48C64",
"r. c #CB8E65",
"t. c #C19364",
"y. c #CD9166",
"u. c #C3966B",
"i. c #CD9269",
"p. c #C69A6C",
"a. c #C89D6F",
"s. c #D2956B",
"d. c #D3986F",
"f. c #CA9D71",
"g. c #C79D79",
"h. c #D49B72",
"j. c #D89D74",
"k. c #CAA275",
"l. c #CDA67C",
"z. c #CEA87D",
"x. c #D4A37D",
"c. c #DCA57B",
"v. c #DCA479",
"b. c #E0A87D",
"n. c #8D8A86",
"m. c #8C8986",
"M. c #9C9B9A",
"N. c #949290",
"B. c #B89983",
"V. c #A1A09F",
"C. c #B8A498",
"Z. c #ABA8A6",
"A. c #B5B4B3",
"S. c #BEBCBA",
"D. c #D4998D",
"F. c #C4A384",
"G. c #CEAA83",
"H. c #CBAB89",
"J. c #CAA886",
"K. c #D7A584",
"L. c #D2AC84",
"P. c #DDAC84",
"I. c #D1AD89",
"U. c #D8A58D",
"Y. c #DBB18F",
"T. c #CFB395",
"R. c #DAB595",
"E. c #E2AD83",
"W. c #E4B187",
"Q. c #E4B48B",
"!. c #E8B78D",
"~. c #E9B98F",
"^. c #ECBD93",
"/. c #E6B897",
"(. c #C7ADA4",
"). c #C1BFBD",
"_. c #D7BBAE",
"`. c #E3BFA5",
"'. c #ECC19C",
"]. c #EFC097",
"[. c #DFC3AC",
"{. c #C4C2BF",
"}. c #E5C1A4",
"|. c #ECC4A5",
" X c #EACDB7",
".X c #CDCAC7",
"XX c #CDCCCB",
"oX c #C3C2C1",
"OX c #D4C6C3",
"+X c #D3CFCC",
"@X c #D8CAC7",
"#X c #D2D0CF",
"$X c #D5D3D2",
"%X c #DAD7D4",
"&X c #DCDCDC",
"*X c #E3DBD9",
"=X c #EFE1D6",
"-X c #E6E5E5",
";X c #EBEAEA",
":X c #E8E5E2",
">X c #EFF0F0",
",X c #F2F3F3",
/* pixels */
"                                                                                                                                ",
"                                                                                                                                ",
"                                                                                                                                ",
"                                                                                                                                ",
"                                                                                                                                ",
"                                      b x z x x x m m                                                                           ",
"                                x l s i i i i i i s j z n                                                                       ",
"                              v f a i i i i i i i i i i s p u                                                                   ",
"                                c i i y i i i i i i i i i i w 0 e                                                               ",
"                              n s i q 0 q 0 0 q i i i i i i i #                                                                 ",
"                              l q 6 @ $ # # $ 2 0 w e i i i i 0 7                                                               ",
"                            m i 2 r w d  .h r { #.1.e.} i i i q 2                                                               ",
"                            l 6   | | i.6.#.u.v.E.j.s.| i i i 0 #                                                               ",
"                            e     h.W.v.f.E.~.^.~.!.s.{ i i y 0 #                                                               ",
"                                  5.0.W.^.^.~.0.{ g.d.f i 0 # # #                                                               ",
"                                  } q.Q.^.^./.K.l.q.h.k 0 # } k 7                                                               ",
"                                  `.].^.^.^.^.].].^.E.=.w 5.W.h.                                                                ",
"                                    '.Y.^.^.].=X X^.^.E.q.j.d.y.                                                                ",
"                                    _.B.~.^.|.A.(.^.^.^.E.j.d.y.                                                                ",
"                                    /.P.].].].C.F.^.^.E.i.d.i.                                                                  ",
"                                  }.Q.~.!.^.!.Q.^.^.W.s.1.                                                                      ",
"                                  [.Q.P.!.^.W.W.^.E.s.r.r.                                                                      ",
"                                  [.'.^.^.P.W.~.P.s.s.P.y.5                                                                     ",
"                                    }./.'./.W.v.r.d.!.^.s.5 =                                                                   ",
"                                      }.E.j.i.e.9 #.].c.X.- : L                                                                 ",
"                                        u.      - ! h.' = * V A B                                                               ",
"                                              P > P w.F > : H H C N                                                             ",
"                                              D C / >.E N A T T G M B                                                           ",
"                                            Y J J / ;.T H J J H E Z M                                                           ",
"                                            Y J R ^ _ T T R H H R G M K                                                         ",
"                                            Y Y J E E T T T G F T J C N                                                         ",
"                                            E D J R T T T R D D R R Z M                                                         ",
"                                            E S H R H T T R S Z H H V & ;                                                       ",
"                            XX          +XC.~ Z H G H T T R S > : * & & <                                                       ",
"                            N.#X%X  XXA.n.s 3 1 D S T T T T Z , > 9 ` #.                                                        ",
"                            j b M.Z.m l i i # 9 Z J R T J T H C P j.~.j.                                                        ",
"                              a 0 i i i i i 0 4 S Y J G J J S ' U.^.~.h.                                                        ",
"                              j q q s i i i i 2 X.Y S J J Z @.|.'.!.j.e.                                                        ",
"                                i 0 i i i i i 6 *.;.E T A ' }.].E.d.r.                                                          ",
"                                f q q s i i i q d j.>.U +./.!.v.y.o.                                                            ",
"                                  i 0 p i i q 0 7 F.~.K./.c.y.o.Q K                                                             ",
"                                  d 0 q i t j k 5.P.P.c.y.o.Q N M B                                                             ",
"                                H.8.] r q { x.c.z.z.z.z.a.<.) B M B                                                             ",
"                                I.G.p.9.B.F.G.z.z.z.z.z.z.z.a.O.L - <                                                           ",
"                                H.z.9.I.G.z.l.k.a.k.k.k.k.p.1.[ O . . X $                                                       ",
"                                  z.p.k.L.z.z.k.7.<... . .] d 7 # 6 0 q i                                                       ",
"                                  J.z.8.z.G.z.l.a.2.g # y i i i i i i i s S.&X&X&X&X&X&X&X&X&X&X&X&X&X&X                        ",
"                                    J.l.8.l.G.l.l.k.2.8 # y i i i i i i a {.&X&X&X&X&X&X&X&X&X&X&X&X&X                          ",
"                                      H.k.t.z.G.z.z.a.[ 3 # y i i i i i s oX&X&X&X&X&X&X&X&X&X&X&X                              ",
"                                        G.k.w.z.z.z.z.p.] $ # y i i i i i .X&X&X&X&X&X&X&X                                      ",
"                                        J.z.p.9.L.z.l.l.1.] $ $ i i i i y {.&X&X&X&X&X&X&X&X&X&X                                ",
"                                          G.l.t.p.I.l.z.k.1...6 # i i y q .X*X&X&X&X&X&X&X&X&X&X                                ",
"                                          H.z.k.1.G.L.z.z.k.2...$ q i 0 q XX&X&X&X&X&X&X&X&X&X&X                                ",
"                                          H.G.x.t.9.T.G.k.t.,.~ # i i # y +X&X&X&X&X&X&X&X                                      ",
"                                            H.k.t.O.7.7.9.w.) I p # 0 + p #X&X&X&X&X&X                                          ",
"                                            q.u.T.$.` t Z.D.Z { i + @ + a $X&X&X&X&X&X&X                                        ",
"                                              B.(.@.&.c OX:.! x $ @ @ @ f $X&X&X&X&X&X                                          ",
"                                        -X>X;XOX_.*X-XOXD.P *.q + + @ @ l %X&X&X&X&X                                            ",
"                                      =X;X-X-X>X,X,X;X;X@X*.3.z b m m.n.Z.&X&X&X                                                ",
"                                      M.M.M.Z.#XXX).A.Z.M.N.m.                                                                  ",
"                                            m.n.m.m.3.&.                                                                        ",
"                                                                                                                                ",
"                                                                                                                                ",
"                                                                                                                                "
};
