/* XPM */
static char *ea185fbd21a74d6cbdc2e1e6588aeaeeo2bUd5oNUVJS62aQ[] = {
/* columns rows colors chars-per-pixel */
"64 64 220 2 ",
"   c black",
".  c black",
"X  c black",
"o  c black",
"O  c black",
"+  c black",
"@  c black",
"#  c black",
"$  c black",
"%  c black",
"&  c black",
"*  c black",
"=  c black",
"-  c black",
";  c black",
":  c black",
">  c black",
",  c black",
"<  c black",
"1  c black",
"2  c black",
"3  c black",
"4  c black",
"5  c black",
"6  c black",
"7  c black",
"8  c black",
"9  c black",
"0  c black",
"q  c black",
"w  c black",
"e  c black",
"r  c black",
"t  c black",
"y  c black",
"u  c black",
"i  c black",
"p  c black",
"a  c black",
"s  c black",
"d  c black",
"f  c black",
"g  c black",
"h  c black",
"j  c black",
"k  c black",
"l  c black",
"z  c black",
"x  c black",
"c  c black",
"v  c black",
"b  c black",
"n  c black",
"m  c black",
"M  c black",
"N  c black",
"B  c black",
"V  c black",
"C  c black",
"Z  c black",
"A  c black",
"S  c black",
"D  c black",
"F  c black",
"G  c black",
"H  c black",
"J  c black",
"K  c black",
"L  c black",
"P  c black",
"I  c black",
"U  c black",
"Y  c black",
"T  c black",
"R  c black",
"E  c black",
"W  c black",
"Q  c black",
"!  c black",
"~  c black",
"^  c black",
"/  c black",
"(  c black",
")  c black",
"_  c black",
"`  c black",
"'  c black",
"]  c black",
"[  c black",
"{  c black",
"}  c black",
"|  c black",
" . c black",
".. c black",
"X. c black",
"o. c black",
"O. c black",
"+. c black",
"@. c black",
"#. c black",
"$. c black",
"%. c black",
"&. c black",
"*. c black",
"=. c black",
"-. c black",
";. c black",
":. c black",
">. c black",
",. c black",
"<. c black",
"1. c black",
"2. c black",
"3. c black",
"4. c black",
"5. c black",
"6. c black",
"7. c black",
"8. c black",
"9. c black",
"0. c black",
"q. c black",
"w. c black",
"e. c black",
"r. c black",
"t. c black",
"y. c black",
"u. c black",
"i. c black",
"p. c black",
"a. c black",
"s. c black",
"d. c black",
"f. c black",
"g. c black",
"h. c black",
"j. c black",
"k. c black",
"l. c black",
"z. c black",
"x. c black",
"c. c black",
"v. c black",
"b. c black",
"n. c black",
"m. c black",
"M. c black",
"N. c black",
"B. c black",
"V. c black",
"C. c black",
"Z. c black",
"A. c black",
"S. c black",
"D. c black",
"F. c black",
"G. c black",
"H. c black",
"J. c black",
"K. c black",
"L. c black",
"P. c black",
"I. c black",
"U. c black",
"Y. c black",
"T. c black",
"R. c black",
"E. c black",
"W. c black",
"Q. c black",
"!. c black",
"~. c black",
"^. c black",
"/. c black",
"(. c black",
"). c black",
"_. c black",
"`. c black",
"'. c black",
"]. c black",
"[. c black",
"{. c black",
"}. c black",
"|. c black",
" X c black",
".X c black",
"XX c black",
"oX c black",
"OX c black",
"+X c black",
"@X c black",
"#X c black",
"$X c black",
"%X c black",
"&X c black",
"*X c black",
"=X c black",
"-X c black",
";X c black",
":X c black",
">X c black",
",X c black",
"<X c black",
"1X c black",
"2X c black",
"3X c black",
"4X c black",
"5X c black",
"6X c black",
"7X c black",
"8X c black",
"9X c black",
"0X c black",
"qX c black",
"wX c black",
"eX c black",
"rX c black",
"tX c black",
"yX c black",
"uX c black",
/* pixels */
"                                              .     O   O   O                               O                                   ",
"                                          .   .   O       X   X           X                                                     ",
"                                                                X X   X X                   O                                   ",
"                                            .       O       X X                                                                 ",
"                                                          X       X                     .                                       ",
"                                                      X X   X   X   X X X     X                                                 ",
"                                                            X X     X                                                           ",
"                                                          X                 X                 .                                 ",
"                                                .                       O X   X             .                                   ",
"                                                  X o X       . X . +                                                           ",
"                                                      O . . O . * $ . . . @ @ O             .                                   ",
"                                                O   O . % : : : . . . . O     @ X                                               ",
"                                                O - - . - + + % 4 $ $ & * $                 .                                   ",
"                                            O O   + + : 0 x v x h 7 & $ $ . . o                                                 ",
"                                            O O O 3 x I 6.F.].F.OX_.v.| s $ . .                                                 ",
"                                          O O O e E F.,X].D.D.`.R.7.@.@.2.R y . O                                               ",
"                                . . .     - . d 5.7XtX=XD.Q.a.@X~.) A ) ) 7.m.& . #       o   X                                 ",
"                                . . . . O O d 6.;XrXwX=XE.E.E.^.~.O.` [ A X.L.q.0 . # o   X                                     ",
"                                  o     O O ^ :XuXtX=X(.+Xh.+XU.~.*.[ ] ( } L.3X+.. + .   X .                                   ",
"                                  o     O d G.6XrX0XQ.U.E.E.+XW. X}.u.9.9.d.R.w.N.s .     . o                                   ",
"                                  X   X O ^ 5XrX0X+XE.U.E.+Xt.W.!.}.}. X~.).).#.| T . *       X                                 ",
"                                X     #   x.>XyX8Xh.#X^.h.+XD.+XI.i.&.9.p.k.!.8.G 2.% & .                                       ",
"                                X       & V.2XtX#Xf./.#XE.E.+XW.%Xe.D ] f.-X~.I.w._.9 . . X                                     ",
"                                  X X . y 1XrX9X/.f.p.#X^.e.=Xt.W.E.F l p./.p.).I.'.x $ +                                       ",
"                                      . y OXyXI.l.O.` $.f.#XE.+X+X+Xy.-.f.#X/.k.{.M.h % .   X                                   ",
"                                  X . . 7 3XqX}.u.` ` / %./.h.E.D.+X+Xg././.f.h.U.'.p $ +   o                                   ",
"                                  o . . 4 [.|.).%.` { / $.#Xg.@Xh.+X+X#X#Xk.g.@Xr.].9 + ,   X                                   ",
"                                    . . $ 2.[.I.*.[ ` / o./.g.g.+XE.h.g.^.^.^.(.'.3.> O O   X                                   ",
"                                      + . L XXP.!.%.A _ =./.#Xa.Q.U.^.(.#X!.U.D.3XV : O   X                                     ",
"                                o     O . y F.].R.I.=.d./.g.-XE.E.Y.(.^.h.h.R.T.F.t : O   X                                     ",
"                                  X   X   % ~ M.N.R.).&X#Xh.E.E.^.Y.Y.!.d.R.|.T.U - + X                                         ",
"                                  X X X   O r 6.<X'.{.a.h.&XE.E.R.s.R.(.(.*XT.:.> . O   #     X                                 ",
"                                    X X . o % u  .@.w.*Xt.Y.@XE.E.(.E.t...Y Q a O +   #     o                                   ",
"                                =         $ k S.2.| L Z r.'.U.a.Y.R.#...3.0.x.4.O X #   X                                       ",
"                                      . * . . m ~ @.XX'.'.T.Q.3X'.D.*X<X3.~ ^ b 2 . +   .     O                                 ",
"                                    X . . . 6 N 2.m S >.:.T q c M.N. .x % $ M G.^ . . .     o                                   ",
"                                # O # . O m c.6Xb.5 8 L 5 % > > > i E 4.Q > % R J.! + O O O O                                   ",
"                                  X + + K A.B.! $ N .X2.0 $ 0 . r O K :XH.V > > 2.:Xb . O O O @                                 ",
"                                O + . r v.5XI $ j eX2.. 1 . . #   O , J oXS.h 4 p _.;.- O - O ;                                 ",
"                                . . + I :X~ + 8 V.v.w : . . @     O   . ! 6X:.& & ;..Xx O O O                                   ",
"                                O O % ,.:X5 5 V >X+.. . O     X @ X @ @ 6 v..Xu & Y OXM O - O O                                 ",
"                                O : + B.B.p % U .XC + : @ O   X   = O O . ;.F.g & | >XM + O O O                                 ",
"                                O . 1 x.K.p > | 2Xx + O O # O   X   O O $ L ,Xc 4 3.oXx . O   O                                 ",
"                                  . . x.H.Q & I ].c > < .     X     . 1 + ;.,Xg c F.Z.y O O   X                                 ",
"                                . X + P H.Z.v h 3X;.: : + .   X X   2 $ M ].m.5 >.1X;.: O .                                     ",
"                                X   , % n.1XN.g 0.].U 9 . + ;   . . . t Z.2XS v `.;XB + O .                                     ",
"                                  X . $ k 0.T.8.h 8.7Xv.n O O   . 6 % n.A.0.q m.].n.0 . + O                                     ",
"                                    # . . > 0.2XY 0 ;.H.K.f * * $ 6 c.S..X0 L :XZ.<.+ O :                                       ",
"                                X   O   + . w S.V.4 6 +.oX1.o $ $ +.S.A.j > z.C.K.d O - O O O O                                 ",
"                                O O O O O O , 1.oXw $ j C.b.$ $ 6 J.J.R : 1 B.5XW , O O O O ;                                   ",
"                                O   O   O O . K c.y $ $ +.b.% . s J.+.2 . + K J , O O O O O O O                                 ",
"                                  O   O . O O r a . $ o s H . O $ H < . % + + .   O   O     O                                   ",
"                                  O     + + O . o . O . .   . O o . . . * .   O O @ O         X                                 ",
"                                  O O   O O     # . O , O   3   + . . o     .           +     O                                 ",
"                                              O .     ; X   O             +               X                                     ",
"                                  O O O           X         X @   X o     X   X   . X       +                                   ",
"                                .             X   X       X                                                                     ",
"                                        O                             X X     X                                                 ",
"                                                      X                                                                         ",
"                                                                  X       X                                                     ",
"                                                                                O                                               ",
"                                        X       X             .     O         X               O                                 ",
"                                              X X         . .     O                   O O                                       ",
"                                                            . . O   O   O O   O O   O     O                                     "
};