/* XPM */
static char *e689c904f79f4d81d7093f46a89abc62ICY3VuELJ5ZXwtLS[] = {
/* columns rows colors chars-per-pixel */
"64 64 156 2 ",
"   c #2D261D",
".  c #2E281E",
"X  c #31281F",
"o  c #2F2920",
"O  c #342C23",
"+  c #382F26",
"@  c #373026",
"#  c #383127",
"$  c #363028",
"%  c #3C352B",
"&  c #3F392F",
"*  c #3F3831",
"=  c #40372F",
"-  c #41382F",
";  c #403730",
":  c #443C33",
">  c #483F36",
",  c #473F38",
"<  c #493F38",
"1  c #474036",
"2  c #484037",
"3  c #4C443B",
"4  c #4F483F",
"5  c #50473E",
"6  c #51493F",
"7  c #544C43",
"8  c #584F46",
"9  c #574F48",
"0  c #584F48",
"q  c #575046",
"w  c #595047",
"e  c #5C544B",
"r  c #5E584E",
"t  c #5F5750",
"y  c #60574E",
"u  c #61584F",
"i  c #645B53",
"p  c #685F56",
"a  c #685F58",
"s  c #676057",
"d  c #696057",
"f  c #6D635B",
"g  c #6E685E",
"h  c #70675E",
"j  c #71685F",
"k  c #6F6760",
"l  c #756B63",
"z  c #786F66",
"x  c #776F68",
"c  c #786F68",
"v  c #777065",
"b  c #797067",
"n  c #7D746B",
"m  c #7F786D",
"M  c #80776E",
"N  c #81786F",
"B  c #807771",
"V  c #857B73",
"C  c #887E76",
"Z  c #897E78",
"A  c #878075",
"S  c #8A8077",
"D  c #8D837B",
"F  c #91867E",
"G  c #92887F",
"H  c #958B82",
"J  c #998E85",
"K  c #9A8F88",
"L  c #9A9087",
"P  c #9D938A",
"I  c #A4978E",
"U  c #A4968D",
"Y  c #A1968D",
"T  c #A2988E",
"R  c #A2988F",
"E  c #A3998F",
"W  c #A49B8F",
"Q  c #A2988F",
"!  c #A49791",
"~  c #A39990",
"^  c #A59990",
"/  c #A69990",
"(  c #A49A91",
")  c #A59B91",
"_  c #A59A91",
"`  c #A79A91",
"'  c #A69992",
"]  c #A49B92",
"[  c #A79B92",
"{  c #A79D93",
"}  c #A79D93",
"|  c #A79E93",
" . c #A79D94",
".. c #A59B92",
"X. c #A89B92",
"o. c #A99C93",
"O. c #A89E93",
"+. c #AA9D95",
"@. c #A89E94",
"#. c #A99F95",
"$. c #AA9E95",
"%. c #AB9E95",
"&. c #AB9F95",
"*. c #AB9E94",
"=. c #AA9E96",
"-. c #A99E94",
";. c #AC9F98",
":. c #ABA197",
">. c #ADA097",
",. c #AEA097",
"<. c #ABA097",
"1. c #AEA198",
"2. c #AFA299",
"3. c #AEA299",
"4. c #B0A39A",
"5. c #B1A49B",
"6. c #B2A49B",
"7. c #B1A59C",
"8. c #B2A59C",
"9. c #B3A59C",
"0. c #B1A79D",
"q. c #B2A69D",
"w. c #B3A69D",
"e. c #B3A69E",
"r. c #B4A69C",
"t. c #B2A59C",
"y. c #B5A89F",
"u. c #B6A89E",
"i. c #B4A89F",
"p. c #B5A9A0",
"a. c #B6A9A0",
"s. c #B6AAA1",
"d. c #B7AAA1",
"f. c #B7ABA1",
"g. c #B6AAA1",
"h. c #B8ABA2",
"j. c #B9ABA2",
"k. c #B8ACA3",
"l. c #B9ACA3",
"z. c #BAADA4",
"x. c #BBAEA5",
"c. c #BBAFA6",
"v. c #BAADA4",
"b. c #BEB1A6",
"n. c #BEB2A9",
"m. c #C1B2A8",
"M. c #C0B4AB",
"N. c #C5B6AD",
"B. c #C2B5AC",
"V. c #C6B8AF",
"C. c #C6B9B0",
"Z. c #CABAB3",
"A. c #CABCB3",
"S. c #CBBCB3",
"D. c #D0C0B8",
"F. c #DBCDC3",
/* pixels */
"H J P J t f  .P P P P P P K K J J J J L P L L H e J j.O. .R -.] 2.<. .-.] <.L P P 0 a Z.r.] Y -.] ] ] X.` +.+.+./ +.X.X.+.U K P ",
"L P P H a H L P P P P L L P J J J J J L J J J L w V N.Y P P P R P R ~ ~ P w.P P Y 8 J Z.W O.O.W P P P Y F ' P U J P X.U P P P P ",
"F ! ~ C i J H L L L J K L L J L P Y Y P L L H F 2 # M J ! ! P P R P ~ Y P ~ P P K 3 ;.p.] O.X.P J I J J Y ! Y / ` r.2.P Y K P P ",
"K P D l i [ L K P L L P Y W P G C m z g i w w 4 % = O > 7 u p f v C x x H D H H n ; ;.m.Y X.] P H I P J P Y Y / +.P F J Y P Y P ",
"H C B 6 3 M Z D F S M i u r 4 : % ; p m F H H J P J V H F V m z k g e r t e 7 7 % 7 H M.Y -.-.L P Y P Y P P P K L K J P J H H ! ",
"k i 3 O + % 2 7 9 q q 7 q 7 7 1 O e P b.d.d.d.d.u.u.f.d.v.v.z.j.p.w.-.6. .J D m ; % c Z ] d.Y V C D D D H H H D D S Z C B l c B ",
"i s l V D J J L P ] H G P P P V % k d.w.%.%.w.w.2.Y r.6.6.6.W 6.r.2.r.p.p.k.k.H 9 0 7 g a h 7 7 p y y w 9 9 7 7 7 7 3 5 e 0 f g ",
"[ ;.-.:.:.] ~ R ~ ~ P P P L L P l > H 2./ %.:.2.2.2.2.-.-.>.X.+./ J ! ! Y ~ P B 0 u 4 w e r y i p i y f f f f k 7   > b J +.6.;.",
"L P L P R P P G L P L P P L L H M 2 i L <.L L P P Y P P L P Y Y / [ ] Y L H F s 4 B P R Y W ] W ~ Y H ] ] ~ Y <.B * H :.] Y P P ",
"J P R <.P P P P P P W P L L L H G S 6 b 2.3.~ Y P P H J Y P J G S V z f w w 7 X 3 G R L P L P L P P P J P H F R p 4 ] L L P H P ",
"H P P P P P P P L ~ R H L L H L L R g 7 l n V z l f p i f g l v p p f l v n n q - S ] P L G Y P P P P L J J L D w 3 P G P P L P ",
"P P P Y G H P J L ] L H F L L L D b 4 O + o 7 D D H P O.6.w.u.v.2.<.2.-.:.<.3.R 7 D ] P L L L P P L J J J L H L V 7 K J P P P P ",
"J L L L J L J J P L L G G V l p e f n V w 4 m.B.r.j.z.d.2.] W P ] ] ] O.O.R R R w f F G D G L A H P L L L L S L D 7 L W P L L P ",
"H H J H L P P L H C b j i p j M H R ( ] n r 2.W ] H -.W Y -.] W 2.f.>.O.R <.] L u X - : 3 6 3 - 7 b D L L L L G b > v P J J L L ",
"L Y R ] R H B f e f b V D J P P P P H R M M O.O.] W <.] ] O.X.+.<.-.] ] P R P ] C 7 n G D N j - @ 3 7 w s j u 3 # - K P D H P J ",
"L G M j i y d l n L Y P L L L L P P L ( M S >.Y <.<.]  .-.] X.` ] R P I P P J P F u Y B.b.b.m.L L 6.W H V l r 1 # : R 2.<.0.2.2.",
"e w r f B D L P P L K K L H J P P P J K g m 0.<.-.] W Y P Y Y J P Y P Y Y R W O.P w P u.2.3.2.d.d.w.w.r.d.2.k.] C 3 H 3. .L D x ",
"l M F P P L H L L L P P P H L P P P J v % j V.L K J L P P P ] O.,.,.6.X.L G C v i - A v.w.w.w.2.6.6.2.-.w.2.2.w.;.r p f w 7 7 i ",
"G J L L L P L P P J L L L L L L L L J r o 7 :.V.N.m.>.I L S V n i > u u w : 2 > : # f w.-.;.3.! %.r.r.w.u.P D -.P f o 7 j M D H ",
"P P P P ~ ~ P P P P L J P R P P L L n 2 g : @ d l f y e w 7 w >   e O.U ] J L L L b 7 ! P J P P Y P ]  .Y J G I H w t H P R P P ",
"S H P ~ A g F F S M z f h f i e 6 3 - % 6 e u j r < D Y  .2.p.! u p j.` P Y P P P H y g H Y ! P Y P L D H Y K V i $ 9 t j l b B ",
"5 4 7 9 2 % % % : d f l l l b B N S G Y 3.i.b.b.j.Y p.j.p.w.-.p.J 5 J ' L L L L L P d % l H H H H D p z g z k i 7 i i r % 7 e 7 ",
"C D D S H b % % J m.v.v.b.z.b.b.b.b.x.v.w.6.2.2.6.p.6.6.6.w.3.p.6.e c K P G F F D j : - 5 i i i r 7 : % # y C J P  .-.;.m F Y D ",
"Y ] ~ P P P 7 m N.J X.6.6.9.6.2.6.u.-.-.u.<.O.f.j.Y X.j.] J p.p.w.8 7 B n e 5 y i v S S J P P Y H V H y , J ] Y P P J K J P P Y ",
"H L P P L Y i F x.P >.w.6.6.w.6.-.v.G J p.] ] :. . .:.3.] H p.3.Y b % * 3 u n H W ] W P G Y P P P P ] D > Z Y J P P P L P L P P ",
"F D P L J F e Y u.w.u.w.r.r.w.6.6.-.Y Y P P P L L P P P P P L P P Z 2 w L ] ! Y F H P L H P P J P P Y D : l Y Y P P L L K K L P ",
"G L J J J m 6 W w.r.w.2.6.X.] ~ P L P P P P P P P P P L K P P P P F 7 n :.J L P D L Y P Y P P L P P P F 2 G Y J L H H K L J J J ",
"H L L P Y V 2 p M 6.>.Y Y ] X.~ P P P L L P L J P P ~  .] Y P H m w % w ~ K P Y P J L L H L L P L J G D > M ` Y R P P P L L H J ",
"L J S m f 2 % # 7 D Y 3.p.[ L D H L Y P P Y R O.;.~ J H H D m u % r b % S :. .P Y R R Y R P P L L G G C : = 8 h M J S H P L H P ",
"w 4 w 7 z P V d 7 3 , 3 9 t t e l n D H H D V j w 2 ; 4 3 ; $ . o 2 9 % ; b b l b b j j f f i e 7 7 2 - + O     + - % w g j l f ",
"p % F <.d.N.S.Z.z.] F p 3 * % + % * ; 2 2 % O & 2 7 7 r 7 7 g l k a f b b b b m i 3 q 3 - # X 3 z 7 S H J G n D J D S f w u i d ",
"D : ] 2.J ] X.%.:.] 6.x.p.L D S m B C B & = D 2.Y ]  .] P L R  . .6.3.:.;. .~ ! R H R L D G 3 l B.P ] v.r.j.j.v.j.v.b.2.Y P <.f.",
"d % Y B.W <.<.2.-.I X.X.] <.<.<.O.<.-.2.> g C.P P Y J H Y P P R K H P L P P L P P P J P P ] i d v.2.<.2.I 6.6.6.6.X.Y p.%.w.r.-.",
"G 3 f Z.] <.f.<.] O.X.O.O.] ]  .] ] ] J = e w.Y F L P P F Y <.P P L P P P J P P P P P P P Y a 7 6.v.r.9.r.u.Y L d.6.6.r.6.6.6.] ",
"L 5 l m.L w.2.P ] O.] ] W Y L ] P Y J n - > >.>.J Y ] P J P P H J L L L J n Y P J L J L H P a z B.2.>.6.6.6.%.O.%.6.%.I J Y Y Y ",
"H 6 M S.Y P P P Y Y P P P P P P L P J P 7 1 6.Y P ] Y L L L L H J J J J H F Y J L L H H H P p f B.6.O.u./ J U Y P J J P K Y J J ",
"V : i 6.6.P P ] J H P K L L Y Y Y R R L 6 % >.] P J J J H H L H J P Y H J P P P J H H H L D 2 w 3.i.6.<.Y P P P P P L Y P Z J H ",
"- w 7 y D Y P ] m.d.d.p.6.H z C B j i 7 % X b 6.L W H H L P L P H F Y  .Y H G R -.-.~ H C i . @ 3 w u f D G G D F H G S M e 8 e ",
"# u i O > y p 7 j z k h i 6 % % 2 z S D G M - d b d.u.6.w. .P D f 7 r i 7 3 6 7 8 8 7 7 w w y f u 6 & X : 3 6 q 7 7 6 1 ; O + # ",
"H D V n 7 6 e 5 > = # O & M J L -.b.x.v.v.b.S j 3 M P M p e w 2 u j M D i . - 6 r f x l J 2.d.z.b.W g M v 6 O @ j V M S D j D H ",
"H Y W ( G J P P H H D z 7 n.z.z.d.w.2.6.-.%.6.p.L w 3 i v D L S P ] ] ] h 7 P d.p.S -.2.j.2.+.%.w.P P b.w.g O q P <.] Y P P R Y ",
"L P P L P A H ( F H ] z : Y w.-.2.O.X.%.] 6.r.6.d.g i <.R R R P J P Y M 7 J d.w.;.K w.w.6.w.w.] 2.w.p.w.S % 7 G R P L P P P P P ",
"K L L P P L P R P P H n 4 G r.2.] Y J J ! -.-.-.P s S ~ J S D H H J V 7 D c.6.6.r.;.[ 3.6.6.r.p.w.2.2.P w & n P Y L P P P L L L ",
"G J J L L P R L P P Y P 7 L m.w.P F ] 2. .! J V k 2 e p e 4 i r 6 1 + h m.6.6.p.] K P P K P / Y P P P z % w D H F L J H J J G H ",
"G L G G K L P F J P Y P 7 i M z f 3 5 i 3 3 7 7 w i f l B D H H S q . j 2.>.r.r.J P P P J P K K F P H 3 3 J P G C L J H J H G L ",
"J J L J L L J J J J J L w X - 7 i z V V m D L P ~  .] ~ ! Y P P P M ; ; S j.,.I J Y Y K P P K Y ~ J i O g R R P L L L P L L L L ",
"G W R P L L J J J H J H r p P ] L / Y ] ] J J P L P L J S L K H F C 5 % O.O.P Y ,.9.6.6.] J V Z n q O O 1 l M M n l S G J G L L ",
"w s v A G P N S Y J P G e z 2.J J P J J H K L J H H J J J K H H H L l > J O.J N G J M a e 5 < ; % ; 2 : # O % # @ O ; 2 3 6 7 q ",
"v l i & # : > 3 i g m D e f  . .P H K J H P H Y Y P Y Y P P H H H F V 5 6 q 3 % O @ % 3 w d b A H P K F V j : - d V S D D C b m ",
"W <.S 1 7 b e V M f 1 2 * 2 e e 7 < 0 r p r e i i i y y r w e e e 6 - # # 2 r l m z ~ 0.2.-.<.<. .R P P R R u e H <.R P ~ ~ ~ Y ",
"L L J g p d.L ] -.<.L G D D V l k k 9 : p 8 V D V M n n f e m z f i e # 3 Y v.-.~  .( P P L L J L P P H P R i 2 A R L H L L L L ",
"H J R G w L Y H H L P Y ] L ~ ] !  .Y 7 5 K -.Y ] ] ] W ! P [ Y P Y L 6 & b 6.Y L P P L L P P J P P P K P P i e L R L L P D H L ",
"H K P Y i C R J L G H H J H L L P H Y 7 a :.K H K P P P K P P H F P J k X g 2.H P P P P P P Y ] P P K K K J 4 ; l C H F K P P L ",
"D A z D l u R G L 2.W Y ] Y P P P P H i a H K P Y P P P J P P P P K D z + i %.Y P P P J L L L P P L K D V s : q 4 7 9 q 7 p V H ",
"3 q 3 2 * % > & : i f l n B V V Z H H 9 : m P P P P P J J P J L L J J F w % H -.J P K K L Y Y J H H P H v 2 S w.-.Y G n b t 2 2 ",
"A O.] W S L P S 7 : 7 f f a p p u 0 3 O 7 Y Y H H J J H H J J J J J J P n $ k -.O.H H H J P Y 2.:.( K A 7 l w.w.w.d.f.w.d.d.J & ",
"2.z.z.2.w.-.] w.S n :.R ~ ( R P L L i . w P H H L L J J L L P P L J H H H 2 3 H G S :.<.W P V n D M a 7 X f J J H D K P P Y J 7 ",
"r z m S L P P P z w G R L H S D D D n O 2 Z H H H J R R P L J L P P G H D e O : 4 r S S b g e - ; % % % % = , : 4 7 9 r p f k 7 ",
"i e w r 1 7 w 7 > % 2 q i r u u i 7 , 7 4 7 7 7 7 3 6 7 7 q w e p f i p i O 2 a w 4 # % u L 6.W K D C M n z g e l k g g f g k f ",
"L M P L e O e n D J G l H P P P P K H Y J Z l 7 O 7 A G G S V f 3 i e 7 7 , 2 7 g m % : W V.u.v.z.Z.D.N.x.r.2.2.2.3.w.3.3.3.;. .",
"L R <.] B d >.Y L R ~ P P Y P P P Y Y P Y Y ~ H ; ] x.%.b.w.6.0.L :.:.<.] ( P m 3 # 1 s F v.>.R R W %.6.u.v.u.6.<.<.<.<. . . . .",
"P <.] <.C z ] H L P P P P P L S P P P P P P P L > n z.O.W W ] ] <.W | R L :.<.2.] 3 w B.F.A.b.<.-.] R <.L ] O.X.O.0.W W 3.;.] ] ",
"Y ] ] W b V ] P P L P P ~ P L C P P L J P P P P 6 P w.] <.] ( <.W <.0.W ] ] ( ( 2.i w u.S.U W P W <.] <.H ] *.W b.>.] Y D w.] R ",
"J L Y S 7 B  .L P P P P P P P P P P L J P P P L 7 Y >.>.] W <.( <.f.:.<.<.R P ( P y 2 O.V.W <.L Y ] <.] O.v.u.B.v.R <.R S 6.P P "
};